<svg width="29" height="29" viewBox="0 0 29 29" fill="none" xmlns="http://www.w3.org/2000/svg">
<g filter="url(#filter0_d_2_132)">
<path d="M13.561 0.25C15.4025 0.25 17.2027 0.796077 18.7339 1.81918C20.2651 2.84229 21.4585 4.29647 22.1632 5.99783C22.868 7.6992 23.0524 9.57133 22.6931 11.3775C22.3338 13.1836 21.447 14.8427 20.1449 16.1449C18.8427 17.447 17.1836 18.3338 15.3775 18.6931C13.5713 19.0524 11.6992 18.868 9.99784 18.1632C8.29648 17.4585 6.8423 16.2651 5.81919 14.7339C4.79609 13.2027 4.25 11.4025 4.25 9.56099C4.25291 7.09245 5.23483 4.72587 6.98035 2.98035C8.72587 1.23483 11.0925 0.252911 13.561 0.25ZM13.561 17.372C15.1059 17.372 16.616 16.9139 17.9006 16.0556C19.1851 15.1973 20.1862 13.9774 20.7774 12.5501C21.3686 11.1229 21.5233 9.55233 21.2219 8.03714C20.9205 6.52195 20.1766 5.13017 19.0842 4.03778C17.9918 2.94539 16.6 2.20147 15.0849 1.90009C13.5697 1.5987 11.9991 1.75338 10.5719 2.34457C9.14459 2.93577 7.92467 3.93692 7.06639 5.22144C6.20811 6.50595 5.75 8.01612 5.75 9.56099C5.75238 11.6319 6.57609 13.6172 8.04042 15.0816C9.50475 16.5459 11.4901 17.3696 13.561 17.372Z" fill="white"/>
<path d="M22.186 16.024C22.6134 16.0242 23.0312 16.1511 23.3864 16.3887C23.7417 16.6264 24.0185 16.964 24.1819 17.3589C24.3453 17.7539 24.3879 18.1884 24.3043 18.6076C24.2207 19.0267 24.0147 19.4117 23.7124 19.7138C23.41 20.0158 23.0249 20.2215 22.6056 20.3047C22.1864 20.3879 21.7519 20.3449 21.3571 20.1811C20.9623 20.0174 20.6249 19.7402 20.3877 19.3848C20.1504 19.0293 20.0238 18.6114 20.024 18.184C20.0245 17.6109 20.2526 17.0615 20.658 16.6565C21.0634 16.2515 21.613 16.024 22.186 16.024ZM22.186 18.846C22.3167 18.8458 22.4443 18.8069 22.5529 18.7342C22.6614 18.6615 22.746 18.5582 22.7959 18.4375C22.8458 18.3167 22.8588 18.1839 22.8333 18.0558C22.8077 17.9277 22.7448 17.81 22.6524 17.7176C22.56 17.6252 22.4423 17.5623 22.3142 17.5367C22.1861 17.5112 22.0533 17.5242 21.9325 17.5741C21.8118 17.624 21.7085 17.7086 21.6358 17.8171C21.5631 17.9257 21.5242 18.0533 21.524 18.184C21.524 18.3596 21.5938 18.528 21.7179 18.6521C21.8421 18.7762 22.0104 18.846 22.186 18.846Z" fill="white"/>
</g>
<defs>
<filter id="filter0_d_2_132" x="0.25" y="0.25" width="28.096" height="28.096" filterUnits="userSpaceOnUse" color-interpolation-filters="sRGB">
<feFlood flood-opacity="0" result="BackgroundImageFix"/>
<feColorMatrix in="SourceAlpha" type="matrix" values="0 0 0 0 0 0 0 0 0 0 0 0 0 0 0 0 0 0 127 0" result="hardAlpha"/>
<feOffset dy="4"/>
<feGaussianBlur stdDeviation="2"/>
<feComposite in2="hardAlpha" operator="out"/>
<feColorMatrix type="matrix" values="0 0 0 0 0 0 0 0 0 0 0 0 0 0 0 0 0 0 0.25 0"/>
<feBlend mode="normal" in2="BackgroundImageFix" result="effect1_dropShadow_2_132"/>
<feBlend mode="normal" in="SourceGraphic" in2="effect1_dropShadow_2_132" result="shape"/>
</filter>
</defs>
</svg>
